<svg id="Layer_3" enable-background="new 0 0 64 64" height="512" viewBox="0 0 64 64" width="512" xmlns="http://www.w3.org/2000/svg"><path d="m57 62-.042-.042c-6.376-6.376-15.024-9.958-24.041-9.958h-1.833c-9.017 0-17.665 3.582-24.042 9.958l-.042.042" fill="#4d5d7a"/><path d="m29 6h6v14h-6z" fill="#674025"/><path d="m27 2h10v4h-10z" fill="#c18e59"/><path d="m41 24h-18v-2c0-1.105.895-2 2-2h14c1.105 0 2 .895 2 2z" fill="#c18e59"/><path d="m37 52v-28h-10v28" fill="#758190"/><path d="m27 45.965c3.617-3.229 6-8.725 6-14.965 0-2.483-.377-4.848-1.059-7h-4.941z" fill="#c1c8d1"/><path d="m2 61h60v2h-60z" fill="#c18e59"/><g fill="#758190"><path d="m40 49h10v2h-10z"/><path d="m39.352 43.5h10.296v1.999h-10.296z" transform="matrix(.874 -.486 .486 .874 -16.008 27.2)"/><path d="m14 49h10v2h-10z"/><path d="m18.5 39.352h1.999v10.296h-1.999z" transform="matrix(.486 -.874 .874 .486 -28.87 39.935)"/></g></svg>